<svg xmlns="http://www.w3.org/2000/svg" width="410" height="404" viewBox="0 0 410 404" fill="none">
  <path d="M255.153 12.8684L131.517 205.562C129.947 207.964 130.037 211.167 131.751 213.477L246.598 372.649C248.796 375.702 253.514 375.557 255.514 372.382L401.72 143.402C403.313 140.863 402.918 137.589 400.752 135.413L259.234 0.774537C257.161 -1.29816 253.85 -0.854196 252.363 1.66585L255.153 12.8684Z" fill="url(#paint0_linear)"/>
  <path d="M154.76 25.6735L1.5678 139.79C-1.56109 142.178 -1.68002 146.765 1.30652 149.313L205.47 322.89C207.899 325.049 211.564 324.751 213.621 322.295L322.43 194.871C324.549 192.344 324.399 188.694 322.066 186.358L160.95 25.1269C158.557 22.7333 154.708 23.0739 152.8 25.7533L154.76 25.6735Z" fill="#00d4ff"/>
  <defs>
    <linearGradient id="paint0_linear" x1="165.27" y1="-5.69882" x2="384.421" y2="284.079" gradientUnits="userSpaceOnUse">
      <stop stop-color="#00d4ff"/>
      <stop offset="1" stop-color="#FFC107"/>
    </linearGradient>
  </defs>
</svg>
